<svg id="Layer_2" xmlns="http://www.w3.org/2000/svg" viewBox="0 0 172.3 197.7"><style>.st0{fill:url(#XMLID_89_)}.st1{fill:url(#XMLID_90_)}.st2{fill:url(#XMLID_91_)}.st3{fill:url(#XMLID_92_)}.st4{fill:url(#XMLID_93_)}.st5{fill:url(#XMLID_94_)}.st6{fill:url(#XMLID_96_)}.st7{fill:url(#XMLID_97_)}.st8{fill:#f57c21}.st9{fill:url(#XMLID_98_)}.st10{fill:url(#XMLID_99_)}.st11{fill:#f5eb00}.st12{fill:url(#XMLID_100_)}.st13{fill:url(#XMLID_102_)}.st14{fill:url(#XMLID_103_)}.st15{fill:url(#XMLID_104_)}.st16{fill:url(#XMLID_105_)}.st17{fill:url(#XMLID_106_)}.st18{fill:url(#XMLID_107_)}.st19{fill:url(#XMLID_108_)}.st20{fill:url(#XMLID_110_)}.st21{fill:url(#XMLID_112_)}.st22{fill:url(#XMLID_114_)}.st23{fill:url(#XMLID_116_)}</style><g id="XMLID_1_"><linearGradient id="XMLID_89_" gradientUnits="userSpaceOnUse" x1="64.832" y1="95.001" x2="69.714" y2="95.001"><stop offset="0" stop-color="#f79851"/><stop offset="1" stop-color="#f26e0b"/></linearGradient><path id="XMLID_59_" class="st0" d="M69.4 99.5c0-5.6.1-11.1.3-16.4-1.6 1-3.2 1.9-4.7 2.9-.1 4.4-.2 8.9-.2 13.5v4.5c1.5 1 3.1 1.9 4.6 2.9.1-2.5 0-4.9 0-7.4z"/><linearGradient id="XMLID_90_" gradientUnits="userSpaceOnUse" x1="64.954" y1="116.568" x2="70" y2="116.568"><stop offset="0" stop-color="#f79851"/><stop offset="1" stop-color="#f26e0b"/></linearGradient><path id="XMLID_60_" class="st1" d="M65 110.4c.1 3.2.2 6.4.3 9.5 1.5 1.1 3 2.1 4.7 2.9-.2-3.1-.3-6.3-.4-9.6-1.5-1-3.1-1.9-4.6-2.8z"/><linearGradient id="XMLID_91_" gradientUnits="userSpaceOnUse" x1="65.237" y1="70.854" x2="70.766" y2="70.854"><stop offset="0" stop-color="#f79851"/><stop offset="1" stop-color="#f26e0b"/></linearGradient><path id="XMLID_65_" class="st2" d="M67.2 69.3c-.5.3-1 .6-1.4.9-.2 3.1-.4 6.2-.5 9.4 1.6-1 3.1-1.9 4.7-2.9.2-4.3.5-8.5.8-12.5l-4.5-2.1c-.1 1.7-.3 3.4-.4 5.1l1.3 2.1z"/><linearGradient id="XMLID_92_" gradientUnits="userSpaceOnUse" x1="87.638" y1="75.568" x2="102.497" y2="75.568"><stop offset="0" stop-color="#fff510"/><stop offset="1" stop-color="#dcd300"/></linearGradient><path id="XMLID_71_" class="st3" d="M97.3 78.3c1.7 1 3.5 2 5.2 3-.1-2.2-.2-4.3-.3-6.4-.7-.4-1.5-.9-2.2-1.3-2.2-1.3-4.5-2.6-6.7-3.8-1.9 1-3.8 2-5.6 3 3.1 1.8 6.4 3.6 9.6 5.5z"/><linearGradient id="XMLID_93_" gradientUnits="userSpaceOnUse" x1="106.962" y1="84.488" x2="118.324" y2="84.488"><stop offset="0" stop-color="#fff510"/><stop offset="1" stop-color="#dcd300"/></linearGradient><path id="XMLID_72_" class="st4" d="M118.3 91.2c-.2-2.6-.8-5.1-1.6-7.4-3.2-2-6.5-4.1-9.8-6.1.1 2.1.2 4.3.2 6.4 3.9 2.4 7.7 4.8 11.2 7.1z"/><linearGradient id="XMLID_94_" gradientUnits="userSpaceOnUse" x1="57.261" y1="61.048" x2="87.638" y2="61.048"><stop offset="0" stop-color="#fff510"/><stop offset="1" stop-color="#dcd300"/></linearGradient><path id="XMLID_30_" class="st5" d="M71.3 58.5c-1.5-.7-3-1.4-4.4-2.1-3.2-1.5-6.4-2.9-9.6-4.2l4.5 7.8c1.5.7 3 1.3 4.5 2.1l4.5 2.1c3.7 1.8 7.4 3.6 11.2 5.6 1.9-1 3.8-2.1 5.6-3.1-5.5-2.9-11-5.7-16.3-8.2z"/><radialGradient id="XMLID_96_" cx="86.138" cy="99.517" r="54.183" gradientUnits="userSpaceOnUse"><stop offset="0" stop-color="#1cb36e"/><stop offset="1" stop-color="#13935a"/></radialGradient><path id="XMLID_95_" class="st6" d="M102.2 124.8c0-.7.1-1.3.1-2-.7.4-1.5.7-2.2 1 .7.3 1.4.7 2.1 1z"/><linearGradient id="XMLID_97_" gradientUnits="userSpaceOnUse" x1="113.257" y1="132.71" x2="113.257" y2="148.231"><stop offset="0" stop-color="#1fc97c"/><stop offset="1" stop-color="#199d60"/></linearGradient><path id="XMLID_101_" class="st7" d="M104.9 148.2c6.2-2 11.8-5 16.8-8.9-4.9-2-10.1-4.2-15.4-6.6-.4 5.4-.9 10.6-1.4 15.5z"/><path id="XMLID_109_" class="st8" d="M105.1 69.3c.5.3 1 .6 1.4.9-.1-1-.1-2-.2-3l-1.2 2.1z"/><path id="XMLID_111_" class="st8" d="M102.3 122.8c0 .7-.1 1.3-.1 2 1.5.7 3 1.5 4.5 2.2.1-2.3.3-4.7.4-7.1-1.5 1.1-3.1 2-4.8 2.9z"/><path id="XMLID_113_" class="st8" d="M101.8 130.6c-.5 6.7-1.1 13.1-1.8 19 1.6-.4 3.2-.8 4.8-1.3.6-4.9 1.1-10.1 1.4-15.5-1.4-.8-2.9-1.5-4.4-2.2z"/><path id="XMLID_115_" class="st8" d="M70.6 132l-4.5 2.1c.4 4.9.8 9.7 1.3 14.2 1.6.5 3.2 1 4.8 1.3-.6-5.5-1.2-11.4-1.6-17.6z"/><linearGradient id="XMLID_98_" gradientUnits="userSpaceOnUse" x1="88.509" y1="122.9" x2="71.655" y2="152.094"><stop offset="0" stop-color="#1fc97c"/><stop offset="1" stop-color="#199d60"/></linearGradient><path id="XMLID_36_" class="st9" d="M92.3 125.8c-2 .3-4 .5-6.2.5-1.3 0-2.5-.1-3.7-.2-4 2.1-8 4-11.9 5.9l-4.5 2.1c-5 2.3-9.8 4.3-14.4 6.1 4.7 3.5 10 6.2 15.8 8.1 1.6.5 3.2 1 4.8 1.3 4.4 1 9.1 1.6 13.9 1.6s9.5-.5 13.9-1.6c.7-5.9 1.3-12.2 1.8-19-3.1-1.5-6.3-3.1-9.5-4.8z"/><path id="XMLID_117_" class="st8" d="M70 122.8c-1.7-.8-3.3-1.8-4.7-2.9.1 2.9.3 5.7.4 8.5l4.5-2.1c-.1-1.2-.1-2.4-.2-3.5z"/><path id="XMLID_119_" class="st8" d="M65.9 67.2c-.1 1-.1 2-.2 3.1.5-.3 1-.6 1.4-.9l-1.2-2.2z"/><radialGradient id="XMLID_99_" cx="86.138" cy="99.517" r="54.183" gradientUnits="userSpaceOnUse"><stop offset="0" stop-color="#1cb36e"/><stop offset="1" stop-color="#13935a"/></radialGradient><path id="XMLID_118_" class="st10" d="M65.9 67.2c-.1 1-.1 2-.2 3.1.5-.3 1-.6 1.4-.9l-1.2-2.2z"/><path id="XMLID_121_" class="st11" d="M46.6 91.8c-5.6-4-10.7-7.9-15.3-11.7-.5 1.9-.9 3.9-1.2 6 3.7 3 7.6 6 11.8 9 1.6-1.1 3.1-2.2 4.7-3.3z"/><path id="XMLID_123_" class="st11" d="M100.1 123.8c-2.4 1-5 1.6-7.8 2.1 3.2 1.7 6.4 3.3 9.5 4.8.1-1.9.2-3.8.4-5.8-.7-.4-1.4-.8-2.1-1.1z"/><path id="XMLID_125_" class="st11" d="M53.9 96.8c-.9-.6-1.7-1.2-2.6-1.8-1.6 1.1-3.1 2.2-4.7 3.3 2.7 1.9 5.5 3.8 8.3 5.6-.5-2.2-.9-4.6-1-7.1z"/><path id="XMLID_127_" class="st11" d="M61.8 60l-4.5-7.8c-1.9-.8-3.8-1.6-5.7-2.3-1.7 1.2-3.3 2.5-4.8 3.9 4.7 1.9 9.7 3.9 15 6.2z"/><path id="XMLID_129_" class="st11" d="M128.7 98.3c4.5 3.2 8.8 6.4 12.6 9.6.4-2 .8-4 1-6.1-2.9-2.2-5.9-4.5-9-6.8-1.5 1.2-3.1 2.3-4.6 3.3z"/><linearGradient id="XMLID_100_" gradientUnits="userSpaceOnUse" x1="106.672" y1="111.795" x2="142.753" y2="111.795"><stop offset="0" stop-color="#1fc97c"/><stop offset="1" stop-color="#199d60"/></linearGradient><path id="XMLID_38_" class="st12" d="M142.4 88.2c-2.9 2.3-5.9 4.6-9.1 6.9-1.5 1.1-3.1 2.2-4.6 3.3-3.9 2.7-7.9 5.4-12.1 8.1-1.9 5.5-5.2 10.1-9.6 13.4-.1 2.4-.2 4.8-.4 7.1 6.9 3.3 13.5 6.1 19.6 8.4 7.4-7.2 12.7-16.6 15.1-27.5.4-2 .8-4 1-6.1.3-2.4.4-4.8.4-7.3.1-2.1-.1-4.2-.3-6.3z"/><path id="XMLID_131_" class="st11" d="M118.3 91.2c1.9 1.3 3.8 2.6 5.7 3.8 1.6-1.1 3.1-2.2 4.7-3.3-3.8-2.7-7.8-5.3-11.9-8 .8 2.5 1.3 4.9 1.5 7.5z"/><path id="XMLID_133_" class="st11" d="M106.7 127c-.1 1.9-.2 3.9-.4 5.7 5.3 2.5 10.4 4.7 15.4 6.6 1.6-1.2 3.1-2.6 4.6-4-6.2-2.3-12.7-5.1-19.6-8.3z"/><linearGradient id="XMLID_102_" gradientUnits="userSpaceOnUse" x1="107.444" y1="99.517" x2="66.813" y2="99.517"><stop offset="0" stop-color="#f79851"/><stop offset="1" stop-color="#f26e0b"/></linearGradient><path id="XMLID_29_" class="st13" d="M107.2 84.2c-.1-2.2-.1-4.3-.2-6.4-.1-2.5-.3-5-.4-7.5-.1-1-.1-2-.2-3-.1-1.3-.2-2.5-.3-3.7-.2-1.9-.3-3.8-.5-5.7-.8-8.6-1.9-16.5-3.2-23.5-3.9-20.9-9.2-31-16.3-31-7.1 0-12.4 10.2-16.3 31-1.2 6.6-2.2 14.1-3 22.2 1.5.7 3 1.4 4.4 2.1C74 29.3 79.6 9.2 86.1 9.2c6.6 0 12.3 20.7 15 50.6.2 1.9.3 3.8.5 5.7.2 3 .4 6.1.6 9.3.1 2.1.2 4.2.3 6.4.2 5.9.3 12 .3 18.2 0 3.1 0 6.2-.1 9.2 0 2.1-.1 4.2-.2 6.3l-.3 7.8c0 .7-.1 1.3-.1 2-.1 2-.2 3.9-.4 5.8-.5 6.7-1.1 13.1-1.8 19-3 24.2-8.1 40.2-13.9 40.2-5.8 0-10.9-16-13.9-40.2-1.6-.4-3.2-.8-4.8-1.3.7 5.9 1.5 11.5 2.4 16.5 3.9 20.9 9.2 31 16.3 31 7.1 0 12.4-10.2 16.3-31 .9-5.1 1.7-10.6 2.4-16.5.6-4.9 1.1-10.1 1.4-15.5.1-1.9.3-3.8.4-5.7.1-2.3.3-4.7.4-7.1.1-2.5.2-5.1.3-7.6.1-2.1.1-4.2.1-6.3v-6.3c.1-5.4.1-10.5-.1-15.5z"/><linearGradient id="XMLID_103_" gradientUnits="userSpaceOnUse" x1="51.734" y1="86.047" x2="51.734" y2="136.18"><stop offset="0" stop-color="#1fc97c"/><stop offset="1" stop-color="#199d60"/></linearGradient><path id="XMLID_34_" class="st14" d="M70 122.8c-1.7-.8-3.3-1.8-4.7-2.9-5-3.8-8.6-9.2-10.3-15.9-2.9-1.9-5.6-3.8-8.3-5.6-1.6-1.1-3.1-2.2-4.6-3.3-4.2-3-8.2-6.1-11.8-9-.4 2.8-.6 5.6-.6 8.5 0 3.3.3 6.4.7 9.5.3 2 .7 4 1.2 5.9 2.7 10.4 8.1 19.3 15.4 26.2 5.8-2.2 12.1-4.8 18.8-7.9l4.5-2.1c1.2-.6 2.5-1.2 3.8-1.8-1.5-.5-2.8-1-4.1-1.6z"/><linearGradient id="XMLID_104_" gradientUnits="userSpaceOnUse" x1="106.36" y1="73.416" x2="141.438" y2="73.416"><stop offset="0" stop-color="#1fc97c"/><stop offset="1" stop-color="#199d60"/></linearGradient><path id="XMLID_39_" class="st15" d="M126.4 54.7c-1.5-1.4-3-2.7-4.6-4-1.4-1-2.8-2-4.2-2.9l-3.5 6.1-4.6 7.9-3.1 5.3c.1 1 .1 2 .2 3 4.8 3.1 8.3 7.9 10.2 13.6.8 2.3 1.3 4.8 1.6 7.4.1 1.1.2 2.2.2 3.3 0 1.5-.1 3-.2 4.4 2-1.3 3.9-2.6 5.8-3.9 1.6-1.1 3.1-2.2 4.7-3.3 4.6-3.3 8.9-6.5 12.8-9.7-2.6-10.5-7.9-20-15.3-27.2z"/><linearGradient id="XMLID_105_" gradientUnits="userSpaceOnUse" x1="38.466" y1="87.203" x2="66.254" y2="59.415"><stop offset="0" stop-color="#1fc97c"/><stop offset="1" stop-color="#199d60"/></linearGradient><path id="XMLID_32_" class="st16" d="M61.8 60l-4.5-7.8-2.5-4.4c-1.1.7-2.1 1.4-3.1 2.1-1.7 1.2-3.3 2.5-4.8 3.9-7.5 7-12.9 16-15.6 26.3 4.5 3.8 9.7 7.7 15.3 11.7 1.5 1.1 3.1 2.2 4.7 3.3.8.6 1.7 1.2 2.6 1.8 0-.8-.1-1.5-.1-2.3v-1.2c.1-2.5.4-4.8 1-7.1 1.7-6.7 5.5-12.4 10.9-16 .1-1 .1-2 .2-3.1L61.8 60z"/><linearGradient id="XMLID_106_" gradientUnits="userSpaceOnUse" x1="87.638" y1="126.399" x2="2.967" y2="126.399"><stop offset="0" stop-color="#3aa1e9"/><stop offset="1" stop-color="#1889d7"/></linearGradient><path id="XMLID_31_" class="st17" d="M82 120.3c-2.7 1.4-5.4 2.8-8 4.1-1.3.6-2.5 1.2-3.8 1.8l-4.5 2.1c-6.6 3.1-12.9 5.7-18.8 7.9-19.9 7.4-34.4 9.4-37.4 4-3.1-5.3 5.8-16.8 22-30.2a56 56 0 0 1-1.2-5.9c-3.1 2.5-5.9 4.9-8.6 7.3C5.8 125.6.1 136.1 4.3 143.2s16 7.4 36.3.9c3.5-1.1 7.2-2.5 11-3.9 4.6-1.8 9.5-3.8 14.4-6.1l4.5-2.1c3.9-1.8 7.9-3.8 11.9-5.9 1.7-.9 3.5-1.8 5.2-2.7-1.8-1-3.7-2.1-5.6-3.1z"/><g id="XMLID_24_"><linearGradient id="XMLID_107_" gradientUnits="userSpaceOnUse" x1="105.588" y1="58.699" x2="114.04" y2="58.699"><stop offset="0" stop-color="#3aa1e9"/><stop offset="1" stop-color="#1889d7"/></linearGradient><path id="XMLID_25_" class="st18" d="M114 53.9c-2.8 1.2-5.6 2.5-8.5 3.8.2 1.9.3 3.8.5 5.7 1.1-.5 2.2-1.1 3.4-1.6l4.6-7.9z"/><linearGradient id="XMLID_108_" gradientUnits="userSpaceOnUse" x1="87.638" y1="114.492" x2="102.752" y2="114.492"><stop offset="0" stop-color="#3aa1e9"/><stop offset="1" stop-color="#1889d7"/></linearGradient><path id="XMLID_45_" class="st19" d="M87.6 117.3c1.9 1 3.8 2 5.6 3 2.2-1.2 4.5-2.5 6.7-3.8.9-.5 1.7-1 2.6-1.5.1-2.1.1-4.2.2-6.3-1.8 1.1-3.6 2.1-5.4 3.2-3.2 1.9-6.5 3.7-9.7 5.4z"/><linearGradient id="XMLID_110_" gradientUnits="userSpaceOnUse" x1="53.821" y1="76.606" x2="101.618" y2="76.606"><stop offset="0" stop-color="#3aa1e9"/><stop offset="1" stop-color="#1889d7"/></linearGradient><path id="XMLID_46_" class="st20" d="M93.3 69.8c2.8-1.5 5.6-2.9 8.3-4.2-.1-1.9-.3-3.9-.5-5.7-4.4 2.2-8.9 4.4-13.5 6.9-1.9 1-3.8 2-5.6 3.1-2.2 1.2-4.5 2.5-6.7 3.8-1.8 1-3.5 2.1-5.3 3.1-1.6 1-3.2 1.9-4.7 2.9-3.6 2.2-7.1 4.4-10.4 6.6-.6 2.2-.9 4.6-1 7.1 3.6-2.4 7.3-4.9 11.2-7.3 1.5-1 3.1-1.9 4.7-2.9 2.7-1.6 5.4-3.3 8.2-4.9 3.3-1.9 6.5-3.7 9.7-5.4 1.8-1.1 3.7-2.1 5.6-3.1z"/><linearGradient id="XMLID_112_" gradientUnits="userSpaceOnUse" x1="107.28" y1="76.781" x2="172.309" y2="76.781"><stop offset="0" stop-color="#3aa1e9"/><stop offset="1" stop-color="#1889d7"/></linearGradient><path id="XMLID_47_" class="st21" d="M171 46.9c-4.1-7.1-16-7.4-36.3-.9-4.1 1.3-8.4 2.9-12.9 4.7 1.6 1.2 3.2 2.6 4.6 4 21-8 36.2-10.3 39.4-4.8 3.2 5.6-6.6 17.9-24.4 32.2-3.9 3.1-8.2 6.4-12.8 9.7-1.5 1.1-3.1 2.2-4.7 3.3-1.9 1.3-3.8 2.6-5.8 3.9-3.5 2.3-7.1 4.6-10.8 6.9 0 2.1-.1 4.2-.1 6.3 3.2-1.9 6.3-3.9 9.3-5.8 4.2-2.7 8.2-5.4 12.1-8.1 1.6-1.1 3.1-2.2 4.6-3.3 3.2-2.3 6.2-4.6 9.1-6.9 4.1-3.2 7.8-6.3 11.2-9.4 15.9-14.2 21.6-24.6 17.5-31.8z"/></g><g id="XMLID_26_"><linearGradient id="XMLID_114_" gradientUnits="userSpaceOnUse" x1="106.297" y1="125.316" x2="172.309" y2="125.316"><stop offset="0" stop-color="#fff510"/><stop offset="1" stop-color="#dcd300"/></linearGradient><path id="XMLID_27_" class="st22" d="M153.6 111.3c-3.4-3.1-7.2-6.2-11.3-9.5-.2 2.1-.6 4.1-1 6.1 17.8 14.4 27.7 26.7 24.5 32.3-3.2 5.5-18.5 3.2-39.6-4.8-6.1-2.3-12.7-5.2-19.6-8.4-.1 1.9-.2 3.9-.4 5.7 5.3 2.5 10.4 4.7 15.4 6.6 4.5 1.8 8.9 3.4 13 4.7 20.3 6.6 32.2 6.3 36.3-.9s-1.5-17.5-17.3-31.8z"/><linearGradient id="XMLID_116_" gradientUnits="userSpaceOnUse" x1="102.173" y1="85.97" x2="2.967" y2="85.97"><stop offset="0" stop-color="#fff510"/><stop offset="1" stop-color="#dcd300"/></linearGradient><path id="XMLID_37_" class="st23" d="M93.3 120.3c-1.9-1-3.8-2-5.6-3-3.2-1.7-6.4-3.5-9.7-5.4-2.9-1.7-5.7-3.3-8.4-5-1.6-1-3.1-1.9-4.6-2.9-3.8-2.4-7.5-4.8-11-7.2-.9-.6-1.7-1.2-2.6-1.8-1.6-1.1-3.1-2.2-4.7-3.3-5.6-4-10.7-7.9-15.3-11.7-16.2-13.4-25-24.7-21.9-30.1 3.1-5.3 17.5-3.4 37.3 4 1.5-1.4 3.1-2.7 4.8-3.9-3.8-1.5-7.5-2.8-11-3.9-20.3-6.6-32.2-6.3-36.3.9s1.6 17.6 17.4 31.9c2.6 2.4 5.4 4.8 8.5 7.2 3.7 3 7.6 6 11.8 9 1.5 1.1 3.1 2.2 4.6 3.3 2.7 1.9 5.5 3.8 8.3 5.6 3.2 2.1 6.6 4.3 10 6.4 1.5.9 3.1 1.9 4.7 2.8 1.9 1.1 3.7 2.2 5.6 3.3 2.2 1.3 4.5 2.6 6.7 3.8 1.9 1 3.8 2.1 5.6 3.1 1.6.8 3.1 1.6 4.7 2.4 3.2 1.7 6.4 3.3 9.5 4.8.1-1.9.2-3.8.4-5.8-.7-.3-1.4-.7-2.1-1-2.2-1.2-4.4-2.3-6.7-3.5z"/></g></g></svg>